<?xml version="1.0" encoding="UTF-8"?>
<!DOCTYPE svg PUBLIC "-//W3C//DTD SVG 1.1//EN" "http://www.w3.org/Graphics/SVG/1.1/DTD/svg11.dtd">
<svg xmlns="http://www.w3.org/2000/svg" version="1.1" width="6250px" height="6250px" style="shape-rendering:geometricPrecision; text-rendering:geometricPrecision; image-rendering:optimizeQuality; fill-rule:evenodd; clip-rule:evenodd" xmlns:xlink="http://www.w3.org/1999/xlink">
<g><path style="opacity:0.99" fill="#fbc048" d="M 1923.5,976.5 C 1972.7,976.491 2005.54,999.491 2022,1045.5C 2032.37,1092.07 2017.87,1128.57 1978.5,1155C 1950.28,1169.74 1921.28,1171.41 1891.5,1160C 1851.98,1140.15 1833.15,1107.98 1835,1063.5C 1840.42,1022.48 1862.59,994.984 1901.5,981C 1908.88,979.024 1916.22,977.524 1923.5,976.5 Z"/></g>
<g><path style="opacity:0.99" fill="#14b5e7" d="M 2501.5,1009.5 C 2615.5,1009.5 2729.5,1009.5 2843.5,1009.5C 2843.5,1051.17 2843.5,1092.83 2843.5,1134.5C 2729.5,1134.5 2615.5,1134.5 2501.5,1134.5C 2501.5,1092.83 2501.5,1051.17 2501.5,1009.5 Z"/></g>
<g><path style="opacity:0.939" fill="#42375c" d="M 956.5,1030.5 C 988.179,1030.1 1004.35,1045.77 1005,1077.5C 1009.53,1092.69 1019.7,1099.19 1035.5,1097C 1049.95,1091.63 1056.45,1081.13 1055,1065.5C 1059.71,1043.72 1073.21,1032.05 1095.5,1030.5C 1114.29,1031.64 1127.12,1040.98 1134,1058.5C 1135.18,1067.28 1136.85,1075.94 1139,1084.5C 1148,1098.02 1159.84,1101.19 1174.5,1094C 1178.42,1090.75 1181.59,1086.92 1184,1082.5C 1185.75,1074.91 1187.08,1067.24 1188,1059.5C 1197.25,1036.62 1214.09,1027.45 1238.5,1032C 1258.42,1039.97 1268.25,1054.81 1268,1076.5C 1272.41,1092.56 1282.91,1099.39 1299.5,1097C 1307.24,1094.26 1312.74,1089.09 1316,1081.5C 1315.33,1062.47 1322.49,1047.3 1337.5,1036C 1358.02,1026.09 1375.85,1029.59 1391,1046.5C 1394.14,1051.11 1396.47,1056.11 1398,1061.5C 1398.82,1068.21 1399.82,1074.88 1401,1081.5C 1410.42,1098.72 1423.58,1102.22 1440.5,1092C 1446.09,1086.31 1449.09,1079.48 1449.5,1071.5C 1454.87,1071.17 1460.21,1071.51 1465.5,1072.5C 1463.28,1097.72 1449.61,1111.72 1424.5,1114.5C 1397.09,1110.92 1383.26,1095.25 1383,1067.5C 1378.06,1051.12 1367.23,1044.62 1350.5,1048C 1341.73,1051.76 1336.23,1058.26 1334,1067.5C 1333.72,1095.27 1319.89,1110.94 1292.5,1114.5C 1273.47,1112.96 1260.64,1103.29 1254,1085.5C 1252.35,1078.94 1251.35,1072.28 1251,1065.5C 1244.01,1048.28 1231.84,1043.11 1214.5,1050C 1208.83,1053.34 1204.99,1058.18 1203,1064.5C 1203.95,1084.44 1196.12,1099.61 1179.5,1110C 1159.34,1118.17 1142.18,1114 1128,1097.5C 1122.38,1088.69 1119.71,1079.02 1120,1068.5C 1117.6,1057.1 1110.77,1049.94 1099.5,1047C 1084.84,1046 1075.34,1052.5 1071,1066.5C 1071.19,1094.8 1057.36,1110.8 1029.5,1114.5C 1001.64,1110.79 987.802,1094.79 988,1066.5C 980.043,1047.09 966.876,1042.26 948.5,1052C 942.094,1057.31 938.761,1064.14 938.5,1072.5C 933.167,1072.5 927.833,1072.5 922.5,1072.5C 923.987,1050.36 935.321,1036.36 956.5,1030.5 Z"/></g>
<g><path style="opacity:0.991" fill="#46ba78" d="M 4559.5,1056.5 C 4615.17,1056.5 4670.83,1056.5 4726.5,1056.5C 4726.5,1112.17 4726.5,1167.83 4726.5,1223.5C 4670.83,1223.5 4615.17,1223.5 4559.5,1223.5C 4559.5,1167.83 4559.5,1112.17 4559.5,1056.5 Z"/></g>
<g><path style="opacity:1" fill="#f05c4e" d="M 5221.5,2240.5 C 5157.2,2305.3 5092.7,2369.97 5028,2434.5C 5027.54,2435.09 5027.37,2435.76 5027.5,2436.5C 4775.37,2184.87 4523.37,1933.03 4271.5,1681C 4267.83,1679 4264.17,1679 4260.5,1681C 4177.67,1763.83 4094.83,1846.67 4012,1929.5C 4011.03,1933.78 4011.7,1937.78 4014,1941.5C 4265.37,2192.7 4516.53,2444.03 4767.5,2695.5C 4569.2,2893.3 4371.03,3091.3 4173,3289.5C 4047.63,3163.97 3922.13,3038.63 3796.5,2913.5C 3796.5,2902.83 3796.5,2892.17 3796.5,2881.5C 3956.8,2720.7 4117.3,2560.03 4278,2399.5C 4279.48,2396.3 4279.82,2392.96 4279,2389.5C 4196.17,2306.67 4113.33,2223.83 4030.5,2141C 4026.5,2139 4022.5,2139 4018.5,2141C 3944.63,2215.03 3870.63,2288.87 3796.5,2362.5C 3796.5,2330.17 3796.5,2297.83 3796.5,2265.5C 3580.5,2265.5 3364.5,2265.5 3148.5,2265.5C 3140.44,2257.45 3132.78,2249.11 3125.5,2240.5C 3136.17,2229.5 3146.83,2218.5 3157.5,2207.5C 3157.83,2207.5 3158.17,2207.5 3158.5,2207.5C 3371.17,2207.5 3583.83,2207.5 3796.5,2207.5C 3796.5,1994.83 3796.5,1782.17 3796.5,1569.5C 3796.5,1569.17 3796.5,1568.83 3796.5,1568.5C 3814.83,1550.5 3833.17,1532.5 3851.5,1514.5C 3848.35,1529.19 3854.02,1535.02 3868.5,1532C 3877.06,1523.49 3876.39,1515.82 3866.5,1509C 3863.11,1508.34 3859.78,1508.51 3856.5,1509.5C 3891.83,1473.83 3927.17,1438.17 3962.5,1402.5C 3965.67,1413.75 3972.67,1416.91 3983.5,1412C 3988.8,1405.47 3988.8,1398.97 3983.5,1392.5C 3981.51,1390.67 3979.18,1389.67 3976.5,1389.5C 4009.83,1355.83 4043.17,1322.17 4076.5,1288.5C 4078.69,1291.18 4081.35,1293.35 4084.5,1295C 4097.35,1296.15 4102.52,1290.31 4100,1277.5C 4098.64,1274.98 4096.81,1272.98 4094.5,1271.5C 4120.3,1245.2 4146.3,1219.03 4172.5,1193C 4173.17,1192.33 4173.83,1192.33 4174.5,1193C 4523.7,1542.03 4872.7,1891.2 5221.5,2240.5 Z"/></g>
<g><path style="opacity:0.977" fill="#42375c" d="M 5188.5,1232.5 C 5192.29,1231.81 5195.45,1232.81 5198,1235.5C 5198.67,1249.17 5198.67,1262.83 5198,1276.5C 5196.7,1278.81 5194.7,1279.81 5192,1279.5C 5189.3,1279.81 5187.3,1278.81 5186,1276.5C 5185.33,1262.83 5185.33,1249.17 5186,1235.5C 5187.04,1234.63 5187.88,1233.63 5188.5,1232.5 Z"/></g>
<g><path style="opacity:0.99" fill="#fbc048" d="M 246.5,1237.5 C 294.167,1237.5 341.833,1237.5 389.5,1237.5C 389.5,1285.17 389.5,1332.83 389.5,1380.5C 341.833,1380.5 294.167,1380.5 246.5,1380.5C 246.5,1332.83 246.5,1285.17 246.5,1237.5 Z"/></g>
<g><path style="opacity:0.998" fill="#f26a22" d="M 1360.5,1270.5 C 1360.5,1381.17 1360.5,1491.83 1360.5,1602.5C 1302.17,1602.33 1243.83,1602.5 1185.5,1603C 1172.66,1606.51 1164.49,1614.68 1161,1627.5C 1160.83,1914.17 1160.67,2200.83 1160.5,2487.5C 1160.67,2774.17 1160.83,3060.83 1161,3347.5C 1163.21,3360.71 1170.71,3369.21 1183.5,3373C 1242.5,3373.5 1301.5,3373.67 1360.5,3373.5C 1360.5,3484.17 1360.5,3594.83 1360.5,3705.5C 1360.5,3705.83 1360.5,3706.17 1360.5,3706.5C 1157.5,3706.5 954.5,3706.5 751.5,3706.5C 751.5,2894.5 751.5,2082.5 751.5,1270.5C 954.5,1270.5 1157.5,1270.5 1360.5,1270.5 Z"/></g>
<g><path style="opacity:0.998" fill="#3eb975" d="M 1969.5,1271.5 C 1969.5,1271.17 1969.5,1270.83 1969.5,1270.5C 2561.5,1270.5 3153.5,1270.5 3745.5,1270.5C 3734.83,1277.03 3733.83,1284.86 3742.5,1294C 3750.69,1297.54 3756.85,1295.37 3761,1287.5C 3762.4,1279.63 3759.56,1273.96 3752.5,1270.5C 3767.17,1270.5 3781.83,1270.5 3796.5,1270.5C 3796.5,1369.83 3796.5,1469.17 3796.5,1568.5C 3796.5,1568.83 3796.5,1569.17 3796.5,1569.5C 3795.83,1569.5 3795.5,1569.83 3795.5,1570.5C 3664.83,1700.83 3534.17,1831.17 3403.5,1961.5C 3404.43,1958.55 3405.26,1955.55 3406,1952.5C 3406.67,1843.83 3406.67,1735.17 3406,1626.5C 3401.98,1613.82 3393.48,1605.99 3380.5,1603C 3113.17,1602.5 2845.83,1602.33 2578.5,1602.5C 2578.5,1492.17 2578.5,1381.83 2578.5,1271.5C 2375.5,1271.5 2172.5,1271.5 1969.5,1271.5 Z"/></g>
<g><path style="opacity:0.931" fill="#42375c" d="M 3857.5,1270.5 C 3872.05,1269.94 3877.21,1276.6 3873,1290.5C 3867.12,1296.94 3860.62,1297.77 3853.5,1293C 3847.27,1284.12 3848.6,1276.62 3857.5,1270.5 Z"/></g>
<g><path style="opacity:0.933" fill="#42375c" d="M 3971.5,1270.5 C 3985.86,1270.35 3990.69,1277.02 3986,1290.5C 3979,1298.5 3972,1298.5 3965,1290.5C 3961.02,1281.72 3963.19,1275.05 3971.5,1270.5 Z"/></g>
<g><path style="opacity:0.976" fill="#45375b" d="M 4094.5,1271.5 C 4096.81,1272.98 4098.64,1274.98 4100,1277.5C 4102.52,1290.31 4097.35,1296.15 4084.5,1295C 4081.35,1293.35 4078.69,1291.18 4076.5,1288.5C 4074.87,1274.46 4080.87,1268.79 4094.5,1271.5 Z"/></g>
<g><path style="opacity:0.929" fill="#42375c" d="M 4650.5,1270.5 C 4665.39,1270.56 4670.23,1277.56 4665,1291.5C 4656.67,1298.42 4649.33,1297.42 4643,1288.5C 4640.9,1280.39 4643.4,1274.39 4650.5,1270.5 Z"/></g>
<g><path style="opacity:1" fill="#fef68f" d="M 1360.5,1270.5 C 1563.5,1270.5 1766.5,1270.5 1969.5,1270.5C 1969.5,1270.83 1969.5,1271.17 1969.5,1271.5C 1969.5,1381.83 1969.5,1492.17 1969.5,1602.5C 1904.83,1602.33 1840.17,1602.5 1775.5,1603C 1763.3,1605.53 1755.14,1612.69 1751,1624.5C 1750.33,1734.83 1750.33,1845.17 1751,1955.5C 1754.71,1967.88 1762.88,1975.38 1775.5,1978C 1840.17,1978.5 1904.83,1978.67 1969.5,1978.5C 1969.5,2054.5 1969.5,2130.5 1969.5,2206.5C 1833.17,2206.5 1696.83,2206.5 1560.5,2206.5C 1560.67,2012.83 1560.5,1819.17 1560,1625.5C 1556.17,1612.67 1547.67,1605.17 1534.5,1603C 1476.5,1602.5 1418.5,1602.33 1360.5,1602.5C 1360.5,1491.83 1360.5,1381.17 1360.5,1270.5 Z"/></g>
<g><path style="opacity:1" fill="#83ca93" d="M 1969.5,1271.5 C 2172.5,1271.5 2375.5,1271.5 2578.5,1271.5C 2578.5,1381.83 2578.5,1492.17 2578.5,1602.5C 2375.5,1602.5 2172.5,1602.5 1969.5,1602.5C 1969.5,1492.17 1969.5,1381.83 1969.5,1271.5 Z"/></g>
<g><path style="opacity:1" fill="#433a5d" d="M 3745.5,1270.5 C 3747.83,1270.5 3750.17,1270.5 3752.5,1270.5C 3759.56,1273.96 3762.4,1279.63 3761,1287.5C 3756.85,1295.37 3750.69,1297.54 3742.5,1294C 3733.83,1284.86 3734.83,1277.03 3745.5,1270.5 Z"/></g>
<g><path style="opacity:0.91" fill="#42375c" d="M 5137.5,1283.5 C 5150.84,1283.33 5164.17,1283.5 5177.5,1284C 5181.12,1286.16 5182.29,1289.33 5181,1293.5C 5180.17,1295 5179,1296.17 5177.5,1297C 5164.5,1297.67 5151.5,1297.67 5138.5,1297C 5132.22,1293.01 5131.88,1288.51 5137.5,1283.5 Z"/></g>
<g><path style="opacity:0.909" fill="#42375c" d="M 5206.5,1283.5 C 5219.84,1283.33 5233.17,1283.5 5246.5,1284C 5252.04,1288.84 5251.7,1293.17 5245.5,1297C 5232.5,1297.67 5219.5,1297.67 5206.5,1297C 5202.3,1294.02 5201.47,1290.19 5204,1285.5C 5204.99,1284.93 5205.83,1284.27 5206.5,1283.5 Z"/></g>
<g><path style="opacity:0.97" fill="#42375c" d="M 5190.5,1300.5 C 5193.65,1300.66 5196.15,1301.99 5198,1304.5C 5198.67,1318.17 5198.67,1331.83 5198,1345.5C 5194,1349.5 5190,1349.5 5186,1345.5C 5185.33,1331.83 5185.33,1318.17 5186,1304.5C 5186.91,1302.39 5188.41,1301.06 5190.5,1300.5 Z"/></g>
<g><path style="opacity:1" fill="#433a5c" d="M 3745.5,1389.5 C 3756.6,1389.1 3761.76,1394.43 3761,1405.5C 3757.99,1413.06 3752.49,1415.9 3744.5,1414C 3733.54,1405.28 3733.87,1397.12 3745.5,1389.5 Z"/></g>
<g><path style="opacity:0.931" fill="#42375c" d="M 3857.5,1389.5 C 3870.82,1388.32 3876.32,1394.32 3874,1407.5C 3870.34,1414.07 3864.84,1416.24 3857.5,1414C 3849.99,1409.81 3847.82,1403.64 3851,1395.5C 3853.06,1393.27 3855.23,1391.27 3857.5,1389.5 Z"/></g>
<g><path style="opacity:0.979" fill="#45375b" d="M 3976.5,1389.5 C 3979.18,1389.67 3981.51,1390.67 3983.5,1392.5C 3988.8,1398.97 3988.8,1405.47 3983.5,1412C 3972.67,1416.91 3965.67,1413.75 3962.5,1402.5C 3963.37,1393.96 3968.03,1389.63 3976.5,1389.5 Z"/></g>
<g><path style="opacity:1" fill="#47375b" d="M 4084.5,1389.5 C 4097.37,1388.91 4102.53,1394.91 4100,1407.5C 4096.43,1413.36 4091.27,1415.53 4084.5,1414C 4077.53,1410.55 4075.03,1405.05 4077,1397.5C 4079.03,1394.31 4081.53,1391.64 4084.5,1389.5 Z"/></g>
<g><path style="opacity:1" fill="#47375b" d="M 4197.5,1389.5 C 4211.92,1389.4 4216.75,1396.07 4212,1409.5C 4207.32,1414.52 4201.82,1415.69 4195.5,1413C 4187.1,1404.33 4187.76,1396.5 4197.5,1389.5 Z"/></g>
<g><path style="opacity:1" fill="#48385b" d="M 4311.5,1389.5 C 4323.09,1389.25 4328.25,1394.92 4327,1406.5C 4320.73,1415.78 4313.4,1416.78 4305,1409.5C 4300.59,1400.66 4302.76,1394 4311.5,1389.5 Z"/></g>
<g><path style="opacity:0.935" fill="#42375c" d="M 4423.5,1389.5 C 4436.82,1388.32 4442.32,1394.32 4440,1407.5C 4436.34,1414.07 4430.84,1416.24 4423.5,1414C 4412.87,1405.88 4412.87,1397.71 4423.5,1389.5 Z"/></g>
<g><path style="opacity:0.935" fill="#42375c" d="M 4536.5,1389.5 C 4549.94,1388.43 4555.44,1394.43 4553,1407.5C 4549.34,1414.07 4543.84,1416.24 4536.5,1414C 4525.94,1405.84 4525.94,1397.68 4536.5,1389.5 Z"/></g>
<g><path style="opacity:0.928" fill="#42375c" d="M 4649.5,1389.5 C 4661.89,1387.92 4667.73,1393.25 4667,1405.5C 4663.87,1413.48 4658.04,1416.31 4649.5,1414C 4642.86,1409.98 4640.7,1404.15 4643,1396.5C 4644.69,1393.64 4646.86,1391.31 4649.5,1389.5 Z"/></g>
<g><path style="opacity:0.911" fill="#42375c" d="M 586.5,1441.5 C 590.355,1440.85 593.188,1442.18 595,1445.5C 595.667,1458.83 595.667,1472.17 595,1485.5C 592.839,1489.12 589.672,1490.29 585.5,1489C 583.513,1487.68 582.346,1485.85 582,1483.5C 581.333,1471.5 581.333,1459.5 582,1447.5C 582.599,1444.75 584.099,1442.75 586.5,1441.5 Z"/></g>
<g><path style="opacity:0.965" fill="#42375c" d="M 533.5,1493.5 C 547.504,1493.33 561.504,1493.5 575.5,1494C 579.5,1498 579.5,1502 575.5,1506C 561.5,1506.67 547.5,1506.67 533.5,1506C 529.565,1501.84 529.565,1497.67 533.5,1493.5 Z"/></g>
<g><path style="opacity:0.975" fill="#42375c" d="M 602.5,1493.5 C 616.171,1493.33 629.837,1493.5 643.5,1494C 648.833,1498 648.833,1502 643.5,1506C 629.833,1506.67 616.167,1506.67 602.5,1506C 598.547,1501.84 598.547,1497.67 602.5,1493.5 Z"/></g>
<g><path style="opacity:1" fill="#433a5d" d="M 3744.5,1508.5 C 3758.9,1508.39 3763.74,1515.05 3759,1528.5C 3750.05,1536.08 3742.71,1534.74 3737,1524.5C 3736,1517.49 3738.5,1512.16 3744.5,1508.5 Z"/></g>
<g><path style="opacity:1" fill="#47375b" d="M 3851.5,1514.5 C 3852.17,1511.83 3853.83,1510.17 3856.5,1509.5C 3859.78,1508.51 3863.11,1508.34 3866.5,1509C 3876.39,1515.82 3877.06,1523.49 3868.5,1532C 3854.02,1535.02 3848.35,1529.19 3851.5,1514.5 Z"/></g>
<g><path style="opacity:1" fill="#47375b" d="M 3971.5,1508.5 C 3983.87,1507.7 3989.04,1513.37 3987,1525.5C 3983.83,1532.17 3978.67,1534.67 3971.5,1533C 3964.22,1529.27 3961.72,1523.44 3964,1515.5C 3965.74,1512.25 3968.24,1509.92 3971.5,1508.5 Z"/></g>
<g><path style="opacity:1" fill="#47375b" d="M 4084.5,1508.5 C 4099.53,1508.55 4104.03,1515.55 4098,1529.5C 4088.96,1536.08 4081.96,1534.42 4077,1524.5C 4076.33,1521.83 4076.33,1519.17 4077,1516.5C 4079.03,1513.31 4081.53,1510.64 4084.5,1508.5 Z"/></g>
<g><path style="opacity:1" fill="#47385b" d="M 4197.5,1508.5 C 4211.9,1508.39 4216.74,1515.05 4212,1528.5C 4203.05,1536.08 4195.71,1534.74 4190,1524.5C 4189,1517.49 4191.5,1512.16 4197.5,1508.5 Z"/></g>
<g><path style="opacity:1" fill="#48385b" d="M 4310.5,1508.5 C 4322.18,1507.68 4327.68,1513.01 4327,1524.5C 4322.73,1533.39 4316.23,1535.55 4307.5,1531C 4300.23,1522.42 4301.23,1514.92 4310.5,1508.5 Z"/></g>
<g><path style="opacity:1" fill="#47375b" d="M 4423.5,1508.5 C 4435.65,1507.82 4441.15,1513.48 4440,1525.5C 4435.29,1533.62 4428.79,1535.46 4420.5,1531C 4416.76,1526.48 4415.59,1521.32 4417,1515.5C 4418.69,1512.64 4420.86,1510.31 4423.5,1508.5 Z"/></g>
<g><path style="opacity:0.933" fill="#42375c" d="M 4536.5,1508.5 C 4549.94,1507.43 4555.44,1513.43 4553,1526.5C 4549.34,1533.07 4543.84,1535.24 4536.5,1533C 4525.94,1524.84 4525.94,1516.68 4536.5,1508.5 Z"/></g>
<g><path style="opacity:0.936" fill="#42375c" d="M 4649.5,1508.5 C 4663.86,1507.24 4669.36,1513.57 4666,1527.5C 4660.52,1534.04 4654.02,1535.2 4646.5,1531C 4642.76,1526.48 4641.59,1521.32 4643,1515.5C 4644.69,1512.64 4646.86,1510.31 4649.5,1508.5 Z"/></g>
<g><path style="opacity:0.915" fill="#42375c" d="M 585.5,1510.5 C 589.684,1509.7 592.85,1511.04 595,1514.5C 595.667,1527.83 595.667,1541.17 595,1554.5C 589.633,1560.24 585.299,1559.57 582,1552.5C 581.333,1540.5 581.333,1528.5 582,1516.5C 582.564,1514.11 583.73,1512.11 585.5,1510.5 Z"/></g>
<g><path style="opacity:1" fill="#fef695" d="M 3795.5,1570.5 C 3795.5,1782.5 3795.5,1994.5 3795.5,2206.5C 3583.5,2206.5 3371.5,2206.5 3159.5,2206.5C 3236.17,2129.5 3312.83,2052.5 3389.5,1975.5C 3394.47,1971.19 3399.14,1966.53 3403.5,1961.5C 3534.17,1831.17 3664.83,1700.83 3795.5,1570.5 Z"/></g>
<g><path style="opacity:1" fill="#121214" d="M 1360.5,1602.5 C 1360.5,2135.5 1360.5,2668.5 1360.5,3201.5C 1360.5,3258.83 1360.5,3316.17 1360.5,3373.5C 1301.5,3373.67 1242.5,3373.5 1183.5,3373C 1170.71,3369.21 1163.21,3360.71 1161,3347.5C 1160.83,3060.83 1160.67,2774.17 1160.5,2487.5C 1160.67,2200.83 1160.83,1914.17 1161,1627.5C 1164.49,1614.68 1172.66,1606.51 1185.5,1603C 1243.83,1602.5 1302.17,1602.33 1360.5,1602.5 Z"/></g>
<g><path style="opacity:1" fill="#a1d5b7" d="M 1360.5,1602.5 C 1418.5,1602.33 1476.5,1602.5 1534.5,1603C 1547.67,1605.17 1556.17,1612.67 1560,1625.5C 1560.5,1819.17 1560.67,2012.83 1560.5,2206.5C 1494.17,2206.5 1427.83,2206.5 1361.5,2206.5C 1361.5,2226.17 1361.5,2245.83 1361.5,2265.5C 1361.5,2577.5 1361.5,2889.5 1361.5,3201.5C 1361.17,3201.5 1360.83,3201.5 1360.5,3201.5C 1360.5,2668.5 1360.5,2135.5 1360.5,1602.5 Z"/></g>
<g><path style="opacity:1" fill="#121214" d="M 1969.5,1602.5 C 2172.5,1602.5 2375.5,1602.5 2578.5,1602.5C 2845.83,1602.33 3113.17,1602.5 3380.5,1603C 3393.48,1605.99 3401.98,1613.82 3406,1626.5C 3406.67,1735.17 3406.67,1843.83 3406,1952.5C 3405.26,1955.55 3404.43,1958.55 3403.5,1961.5C 3399.14,1966.53 3394.47,1971.19 3389.5,1975.5C 3386.55,1976.43 3383.55,1977.26 3380.5,1978C 3113.17,1978.5 2845.83,1978.67 2578.5,1978.5C 2375.5,1978.5 2172.5,1978.5 1969.5,1978.5C 1904.83,1978.67 1840.17,1978.5 1775.5,1978C 1762.88,1975.38 1754.71,1967.88 1751,1955.5C 1750.33,1845.17 1750.33,1734.83 1751,1624.5C 1755.14,1612.69 1763.3,1605.53 1775.5,1603C 1840.17,1602.5 1904.83,1602.33 1969.5,1602.5 Z"/></g>
<g><path style="opacity:0.927" fill="#42375c" d="M 4652.5,1626.5 C 4665.9,1627.96 4670.07,1634.96 4665,1647.5C 4659.53,1653.04 4653.36,1653.87 4646.5,1650C 4642.28,1644.69 4641.45,1638.86 4644,1632.5C 4646.32,1629.6 4649.16,1627.6 4652.5,1626.5 Z"/></g>
<g><path style="opacity:1" fill="#483b5d" d="M 3744.5,1627.5 C 3752.05,1626.03 3757.55,1628.69 3761,1635.5C 3761.56,1649.95 3755.06,1654.79 3741.5,1650C 3734.23,1641.37 3735.23,1633.87 3744.5,1627.5 Z"/></g>
<g><path style="opacity:1" fill="#48385b" d="M 3857.5,1627.5 C 3871.69,1626.56 3876.85,1632.89 3873,1646.5C 3862.97,1655.73 3855.31,1654.07 3850,1641.5C 3849.61,1635.29 3852.11,1630.62 3857.5,1627.5 Z"/></g>
<g><path style="opacity:1" fill="#46375b" d="M 3970.5,1627.5 C 3983.37,1626.21 3988.87,1631.87 3987,1644.5C 3979.33,1655.17 3971.67,1655.17 3964,1644.5C 3963.33,1641.17 3963.33,1637.83 3964,1634.5C 3965.69,1631.64 3967.86,1629.31 3970.5,1627.5 Z"/></g>
<g><path style="opacity:1" fill="#48385b" d="M 4083.5,1627.5 C 4091.84,1625.88 4097.67,1628.88 4101,1636.5C 4101.72,1643.57 4098.88,1648.73 4092.5,1652C 4080.81,1652.64 4075.64,1647.14 4077,1635.5C 4078.3,1632.04 4080.47,1629.37 4083.5,1627.5 Z"/></g>
<g><path style="opacity:1" fill="#48385b" d="M 4197.5,1627.5 C 4209.14,1626.64 4214.64,1631.97 4214,1643.5C 4209.73,1652.39 4203.23,1654.55 4194.5,1650C 4187.1,1641.33 4188.1,1633.83 4197.5,1627.5 Z"/></g>
<g><path style="opacity:1" fill="#48385b" d="M 4310.5,1627.5 C 4318.05,1626.03 4323.55,1628.69 4327,1635.5C 4327.56,1649.95 4321.06,1654.79 4307.5,1650C 4300.19,1641.38 4301.19,1633.88 4310.5,1627.5 Z"/></g>
<g><path style="opacity:1" fill="#46375b" d="M 4423.5,1627.5 C 4437.68,1626.53 4442.84,1632.86 4439,1646.5C 4430.77,1655.04 4423.43,1654.37 4417,1644.5C 4414.79,1637.01 4416.95,1631.35 4423.5,1627.5 Z"/></g>
<g><path style="opacity:1" fill="#46375b" d="M 4536.5,1627.5 C 4549.34,1626.17 4554.84,1631.84 4553,1644.5C 4546.52,1654.25 4539.19,1654.91 4531,1646.5C 4527.63,1638.48 4529.46,1632.15 4536.5,1627.5 Z"/></g>
<g><path style="opacity:1" fill="#121214" d="M 5027.5,2436.5 C 5154.8,2564.3 5282.3,2691.97 5410,2819.5C 5410.82,2822.96 5410.48,2826.3 5409,2829.5C 5326.5,2912 5244,2994.5 5161.5,3077C 5156.93,3079.22 5152.6,3078.89 5148.5,3076C 5021.63,2948.97 4894.63,2822.13 4767.5,2695.5C 4516.53,2444.03 4265.37,2192.7 4014,1941.5C 4011.7,1937.78 4011.03,1933.78 4012,1929.5C 4094.83,1846.67 4177.67,1763.83 4260.5,1681C 4264.17,1679 4267.83,1679 4271.5,1681C 4523.37,1933.03 4775.37,2184.87 5027.5,2436.5 Z"/></g>
<g><path style="opacity:1" fill="#483b5e" d="M 3744.5,1746.5 C 3756.82,1744.99 3762.32,1750.33 3761,1762.5C 3755.9,1772.27 3748.9,1773.94 3740,1767.5C 3734.42,1758.94 3735.92,1751.94 3744.5,1746.5 Z"/></g>
<g><path style="opacity:1" fill="#47375b" d="M 3857.5,1746.5 C 3872.37,1745.92 3877.21,1752.59 3872,1766.5C 3863.85,1773.75 3856.85,1772.75 3851,1763.5C 3848.79,1756.01 3850.95,1750.35 3857.5,1746.5 Z"/></g>
<g><path style="opacity:1" fill="#47375b" d="M 4536.5,1746.5 C 4549.32,1745.15 4554.82,1750.82 4553,1763.5C 4548.54,1771.32 4542.37,1773.16 4534.5,1769C 4527.29,1760.7 4527.96,1753.2 4536.5,1746.5 Z"/></g>
<g><path style="opacity:1" fill="#47375b" d="M 4649.5,1746.5 C 4657.92,1744.63 4663.76,1747.63 4667,1755.5C 4667.15,1766.02 4661.98,1771.18 4651.5,1771C 4644.31,1767.78 4641.47,1762.28 4643,1754.5C 4644.3,1751.04 4646.47,1748.37 4649.5,1746.5 Z"/></g>
<g><path style="opacity:1" fill="#473b5d" d="M 3746.5,1864.5 C 3757.64,1864.81 3762.48,1870.48 3761,1881.5C 3757.35,1888.74 3751.51,1891.24 3743.5,1889C 3733.59,1879.31 3734.59,1871.14 3746.5,1864.5 Z"/></g>
<g><path style="opacity:1" fill="#47375b" d="M 3859.5,1864.5 C 3870.62,1864.79 3875.46,1870.46 3874,1881.5C 3870.88,1888.97 3865.38,1891.47 3857.5,1889C 3850.93,1885.34 3848.76,1879.84 3851,1872.5C 3853.1,1868.9 3855.93,1866.23 3859.5,1864.5 Z"/></g>
<g><path style="opacity:1" fill="#47375b" d="M 4538.5,1864.5 C 4551.56,1865.39 4556.06,1872.06 4552,1884.5C 4547.86,1889.21 4542.69,1890.71 4536.5,1889C 4530.24,1885.24 4528.07,1879.74 4530,1872.5C 4532.07,1868.92 4534.91,1866.26 4538.5,1864.5 Z"/></g>
<g><path style="opacity:1" fill="#47375b" d="M 4651.5,1864.5 C 4663.22,1865.05 4668.06,1871.05 4666,1882.5C 4661.51,1889.55 4655.35,1891.38 4647.5,1888C 4639.87,1878.55 4641.21,1870.72 4651.5,1864.5 Z"/></g>
<g><path style="opacity:0.991" fill="#c34f9c" d="M 6034.5,1899.5 C 6082.17,1899.5 6129.83,1899.5 6177.5,1899.5C 6177.5,1947.17 6177.5,1994.83 6177.5,2042.5C 6129.83,2042.5 6082.17,2042.5 6034.5,2042.5C 6034.5,1994.83 6034.5,1947.17 6034.5,1899.5 Z"/></g>
<g><path style="opacity:0.997" fill="#3eb975" d="M 3389.5,1975.5 C 3312.83,2052.5 3236.17,2129.5 3159.5,2206.5C 3158.83,2206.5 3158.5,2206.83 3158.5,2207.5C 3158.17,2207.5 3157.83,2207.5 3157.5,2207.5C 2964.5,2207.5 2771.5,2207.5 2578.5,2207.5C 2375.5,2207.5 2172.5,2207.5 1969.5,2207.5C 1969.5,2207.17 1969.5,2206.83 1969.5,2206.5C 2172.5,2206.5 2375.5,2206.5 2578.5,2206.5C 2578.5,2130.5 2578.5,2054.5 2578.5,1978.5C 2845.83,1978.67 3113.17,1978.5 3380.5,1978C 3383.55,1977.26 3386.55,1976.43 3389.5,1975.5 Z"/></g>
<g><path style="opacity:1" fill="#83ca93" d="M 1969.5,1978.5 C 2172.5,1978.5 2375.5,1978.5 2578.5,1978.5C 2578.5,2054.5 2578.5,2130.5 2578.5,2206.5C 2375.5,2206.5 2172.5,2206.5 1969.5,2206.5C 1969.5,2130.5 1969.5,2054.5 1969.5,1978.5 Z"/></g>
<g><path style="opacity:1" fill="#121214" d="M 3796.5,2881.5 C 3795.5,2881.83 3794.83,2882.5 3794.5,2883.5C 3789.5,2887.83 3784.83,2892.5 3780.5,2897.5C 3678.83,2998.5 3577.5,3099.83 3476.5,3201.5C 3444.37,3233.13 3412.37,3264.97 3380.5,3297C 3376.71,3297.84 3373.04,3297.5 3369.5,3296C 3337.97,3264.3 3306.3,3232.8 3274.5,3201.5C 3224.2,3150.7 3173.7,3100.03 3123,3049.5C 3119.67,3045.17 3119.67,3040.83 3123,3036.5C 3256.03,2903.63 3388.87,2770.63 3521.5,2637.5C 3613.17,2546.5 3704.5,2455.17 3795.5,2363.5C 3796.17,2363.5 3796.5,2363.17 3796.5,2362.5C 3870.63,2288.87 3944.63,2215.03 4018.5,2141C 4022.5,2139 4026.5,2139 4030.5,2141C 4113.33,2223.83 4196.17,2306.67 4279,2389.5C 4279.82,2392.96 4279.48,2396.3 4278,2399.5C 4117.3,2560.03 3956.8,2720.7 3796.5,2881.5 Z"/></g>
<g><path style="opacity:1" fill="#fbf370" d="M 1560.5,2206.5 C 1696.83,2206.5 1833.17,2206.5 1969.5,2206.5C 1969.5,2206.83 1969.5,2207.17 1969.5,2207.5C 1833.5,2207.5 1697.5,2207.5 1561.5,2207.5C 1561.5,2226.83 1561.5,2246.17 1561.5,2265.5C 1561.17,2265.5 1560.83,2265.5 1560.5,2265.5C 1560.5,2245.83 1560.5,2226.17 1560.5,2206.5 Z"/></g>
<g><path style="opacity:1" fill="#f69264" d="M 3796.5,1569.5 C 3796.5,1782.17 3796.5,1994.83 3796.5,2207.5C 3583.83,2207.5 3371.17,2207.5 3158.5,2207.5C 3158.5,2206.83 3158.83,2206.5 3159.5,2206.5C 3371.5,2206.5 3583.5,2206.5 3795.5,2206.5C 3795.5,1994.5 3795.5,1782.5 3795.5,1570.5C 3795.5,1569.83 3795.83,1569.5 3796.5,1569.5 Z"/></g>
<g><path style="opacity:1" fill="#7ac9a1" d="M 1560.5,2206.5 C 1560.5,2226.17 1560.5,2245.83 1560.5,2265.5C 1494.17,2265.5 1427.83,2265.5 1361.5,2265.5C 1361.5,2245.83 1361.5,2226.17 1361.5,2206.5C 1427.83,2206.5 1494.17,2206.5 1560.5,2206.5 Z"/></g>
<g><path style="opacity:1" fill="#fef461" d="M 1969.5,2207.5 C 1969.5,2226.83 1969.5,2246.17 1969.5,2265.5C 1833.5,2265.5 1697.5,2265.5 1561.5,2265.5C 1561.5,2246.17 1561.5,2226.83 1561.5,2207.5C 1697.5,2207.5 1833.5,2207.5 1969.5,2207.5 Z"/></g>
<g><path style="opacity:1" fill="#3eb974" d="M 1969.5,2207.5 C 2172.5,2207.5 2375.5,2207.5 2578.5,2207.5C 2578.5,2226.83 2578.5,2246.17 2578.5,2265.5C 2375.5,2265.5 2172.5,2265.5 1969.5,2265.5C 1969.5,2246.17 1969.5,2226.83 1969.5,2207.5 Z"/></g>
<g><path style="opacity:0.998" fill="#ee4439" d="M 5221.5,2240.5 C 5446.48,2464.81 5671.15,2689.48 5895.5,2914.5C 5546.17,3264.5 5196.5,3614.17 4846.5,3963.5C 4621.85,3739.35 4397.35,3515.01 4173,3290.5C 3948.65,3515.01 3724.15,3739.35 3499.5,3963.5C 3245.48,3710.15 2991.81,3456.48 2738.5,3202.5C 2738.5,3202.17 2738.5,3201.83 2738.5,3201.5C 2917.17,3201.5 3095.83,3201.5 3274.5,3201.5C 3306.3,3232.8 3337.97,3264.3 3369.5,3296C 3373.04,3297.5 3376.71,3297.84 3380.5,3297C 3412.37,3264.97 3444.37,3233.13 3476.5,3201.5C 3582.83,3201.5 3689.17,3201.5 3795.5,3201.5C 3796.5,3105.67 3796.83,3009.67 3796.5,2913.5C 3922.13,3038.63 4047.63,3163.97 4173,3289.5C 4371.03,3091.3 4569.2,2893.3 4767.5,2695.5C 4894.63,2822.13 5021.63,2948.97 5148.5,3076C 5152.6,3078.89 5156.93,3079.22 5161.5,3077C 5244,2994.5 5326.5,2912 5409,2829.5C 5410.48,2826.3 5410.82,2822.96 5410,2819.5C 5282.3,2691.97 5154.8,2564.3 5027.5,2436.5C 5027.37,2435.76 5027.54,2435.09 5028,2434.5C 5092.7,2369.97 5157.2,2305.3 5221.5,2240.5 Z"/></g>
<g><path style="opacity:0.984" fill="#ef4439" d="M 3125.5,2240.5 C 3132.78,2249.11 3140.44,2257.45 3148.5,2265.5C 3132.5,2265.5 3116.5,2265.5 3100.5,2265.5C 3108.5,2256.83 3116.83,2248.5 3125.5,2240.5 Z"/></g>
<g><path style="opacity:0.994" fill="#3eb974" d="M 2578.5,2265.5 C 2752.17,2265.5 2925.83,2265.5 3099.5,2265.5C 3099.5,2265.83 3099.5,2266.17 3099.5,2266.5C 3070.83,2294.5 3042.5,2322.83 3014.5,2351.5C 3014.17,2351.5 3013.83,2351.5 3013.5,2351.5C 2868.5,2351.5 2723.5,2351.5 2578.5,2351.5C 2578.5,2322.83 2578.5,2294.17 2578.5,2265.5 Z"/></g>
<g><path style="opacity:1" fill="#f9a96d" d="M 3099.5,2266.5 C 3099.5,2266.17 3099.5,2265.83 3099.5,2265.5C 3099.83,2265.5 3100.17,2265.5 3100.5,2265.5C 3116.5,2265.5 3132.5,2265.5 3148.5,2265.5C 3364.5,2265.5 3580.5,2265.5 3796.5,2265.5C 3796.5,2297.83 3796.5,2330.17 3796.5,2362.5C 3796.5,2363.17 3796.17,2363.5 3795.5,2363.5C 3795.5,2331.17 3795.5,2298.83 3795.5,2266.5C 3580.5,2266.5 3365.5,2266.5 3150.5,2266.5C 3133.5,2266.5 3116.5,2266.5 3099.5,2266.5 Z"/></g>
<g><path style="opacity:1" fill="#a1d5b7" d="M 1361.5,2265.5 C 1427.83,2265.5 1494.17,2265.5 1560.5,2265.5C 1560.5,2577.5 1560.5,2889.5 1560.5,3201.5C 1494.17,3201.5 1427.83,3201.5 1361.5,3201.5C 1361.5,2889.5 1361.5,2577.5 1361.5,2265.5 Z"/></g>
<g><path style="opacity:1" fill="#fef68f" d="M 1560.5,2265.5 C 1560.83,2265.5 1561.17,2265.5 1561.5,2265.5C 1697.5,2265.5 1833.5,2265.5 1969.5,2265.5C 1969.5,2294.17 1969.5,2322.83 1969.5,2351.5C 1905.33,2351.17 1841.33,2351.5 1777.5,2352.5C 1764.33,2354.49 1755.5,2361.83 1751,2374.5C 1750.5,2698.5 1750.33,3022.5 1750.5,3346.5C 1749.5,3298.34 1749.17,3250 1749.5,3201.5C 1686.83,3201.5 1624.17,3201.5 1561.5,3201.5C 1561.83,3250.34 1561.5,3299 1560.5,3347.5C 1560.5,3298.83 1560.5,3250.17 1560.5,3201.5C 1560.5,2889.5 1560.5,2577.5 1560.5,2265.5 Z"/></g>
<g><path style="opacity:1" fill="#82c892" d="M 1969.5,2265.5 C 2172.5,2265.5 2375.5,2265.5 2578.5,2265.5C 2578.5,2294.17 2578.5,2322.83 2578.5,2351.5C 2723.5,2351.5 2868.5,2351.5 3013.5,2351.5C 3013.5,2351.83 3013.5,2352.17 3013.5,2352.5C 3013.17,2352.5 3012.83,2352.5 3012.5,2352.5C 2600.83,2352.5 2189.17,2352.5 1777.5,2352.5C 1841.33,2351.5 1905.33,2351.17 1969.5,2351.5C 1969.5,2322.83 1969.5,2294.17 1969.5,2265.5 Z"/></g>
<g><path style="opacity:1" fill="#fef580" d="M 3099.5,2266.5 C 3116.5,2266.5 3133.5,2266.5 3150.5,2266.5C 3178.3,2294.8 3206.3,2322.97 3234.5,2351C 3161.17,2351.5 3087.83,2351.67 3014.5,2351.5C 3042.5,2322.83 3070.83,2294.5 3099.5,2266.5 Z"/></g>
<g><path style="opacity:1" fill="#fff695" d="M 3150.5,2266.5 C 3365.5,2266.5 3580.5,2266.5 3795.5,2266.5C 3795.5,2298.83 3795.5,2331.17 3795.5,2363.5C 3704.5,2455.17 3613.17,2546.5 3521.5,2637.5C 3453.17,2569.5 3384.83,2501.5 3316.5,2433.5C 3316.5,2433.17 3316.5,2432.83 3316.5,2432.5C 3316.67,2413.5 3316.5,2394.5 3316,2375.5C 3312.39,2363.56 3304.56,2356.06 3292.5,2353C 3273.84,2352.5 3255.17,2352.33 3236.5,2352.5C 3162.17,2352.5 3087.83,2352.5 3013.5,2352.5C 3013.5,2352.17 3013.5,2351.83 3013.5,2351.5C 3013.83,2351.5 3014.17,2351.5 3014.5,2351.5C 3087.83,2351.67 3161.17,2351.5 3234.5,2351C 3206.3,2322.97 3178.3,2294.8 3150.5,2266.5 Z"/></g>
<g><path style="opacity:1" fill="#121214" d="M 1777.5,2352.5 C 2189.17,2352.5 2600.83,2352.5 3012.5,2352.5C 2892.83,2472.5 2773.17,2592.5 2653.5,2712.5C 2653.17,2712.5 2652.83,2712.5 2652.5,2712.5C 2627.83,2712.5 2603.17,2712.5 2578.5,2712.5C 2434.83,2712.5 2291.17,2712.5 2147.5,2712.5C 2147.5,2875.5 2147.5,3038.5 2147.5,3201.5C 2147.5,3201.83 2147.5,3202.17 2147.5,3202.5C 2147.67,3251.83 2147.5,3301.17 2147,3350.5C 2144.09,3360.42 2137.92,3367.58 2128.5,3372C 2011.22,3373.49 1893.89,3373.99 1776.5,3373.5C 1761.08,3371.08 1752.42,3362.08 1750.5,3346.5C 1750.33,3022.5 1750.5,2698.5 1751,2374.5C 1755.5,2361.83 1764.33,2354.49 1777.5,2352.5 Z"/></g>
<g><path style="opacity:1" fill="#f3846d" d="M 3012.5,2352.5 C 3012.83,2352.5 3013.17,2352.5 3013.5,2352.5C 3087.83,2352.5 3162.17,2352.5 3236.5,2352.5C 3262.83,2379.5 3289.5,2406.17 3316.5,2432.5C 3316.5,2432.83 3316.5,2433.17 3316.5,2433.5C 3316.67,2518.5 3316.5,2603.5 3316,2688.5C 3312.6,2701.9 3304.1,2709.73 3290.5,2712C 3078.17,2712.5 2865.83,2712.67 2653.5,2712.5C 2773.17,2592.5 2892.83,2472.5 3012.5,2352.5 Z"/></g>
<g><path style="opacity:1" fill="#f5907d" d="M 3236.5,2352.5 C 3255.17,2352.33 3273.84,2352.5 3292.5,2353C 3304.56,2356.06 3312.39,2363.56 3316,2375.5C 3316.5,2394.5 3316.67,2413.5 3316.5,2432.5C 3289.5,2406.17 3262.83,2379.5 3236.5,2352.5 Z"/></g>
<g><path style="opacity:1" fill="#fef580" d="M 3316.5,2433.5 C 3384.83,2501.5 3453.17,2569.5 3521.5,2637.5C 3388.87,2770.63 3256.03,2903.63 3123,3036.5C 3119.67,3040.83 3119.67,3045.17 3123,3049.5C 3173.7,3100.03 3224.2,3150.7 3274.5,3201.5C 3095.83,3201.5 2917.17,3201.5 2738.5,3201.5C 2685.17,3148.5 2631.83,3095.5 2578.5,3042.5C 2578.5,3042.17 2578.5,3041.83 2578.5,3041.5C 2578.5,2956.83 2578.5,2872.17 2578.5,2787.5C 2578.5,2787.17 2578.5,2786.83 2578.5,2786.5C 2603.5,2762.17 2628.17,2737.5 2652.5,2712.5C 2652.83,2712.5 2653.17,2712.5 2653.5,2712.5C 2865.83,2712.67 3078.17,2712.5 3290.5,2712C 3304.1,2709.73 3312.6,2701.9 3316,2688.5C 3316.5,2603.5 3316.67,2518.5 3316.5,2433.5 Z"/></g>
<g><path style="opacity:0.957" fill="#42375c" d="M 6105.5,2659.5 C 6116.98,2678.45 6127.98,2697.78 6138.5,2717.5C 6116.5,2718.83 6094.5,2718.83 6072.5,2717.5C 6083.51,2698.14 6094.51,2678.81 6105.5,2659.5 Z"/></g>
<g><path style="opacity:1" fill="#84ca94" d="M 2578.5,2712.5 C 2578.5,2737.17 2578.5,2761.83 2578.5,2786.5C 2578.5,2786.83 2578.5,2787.17 2578.5,2787.5C 2535.85,2829.48 2493.52,2871.81 2451.5,2914.5C 2493.52,2957.19 2535.85,2999.52 2578.5,3041.5C 2578.5,3041.83 2578.5,3042.17 2578.5,3042.5C 2578.5,3095.5 2578.5,3148.5 2578.5,3201.5C 2434.83,3201.5 2291.17,3201.5 2147.5,3201.5C 2147.5,3038.5 2147.5,2875.5 2147.5,2712.5C 2291.17,2712.5 2434.83,2712.5 2578.5,2712.5 Z"/></g>
<g><path style="opacity:1" fill="#3eb974" d="M 2578.5,2712.5 C 2603.17,2712.5 2627.83,2712.5 2652.5,2712.5C 2628.17,2737.5 2603.5,2762.17 2578.5,2786.5C 2578.5,2761.83 2578.5,2737.17 2578.5,2712.5 Z"/></g>
<g><path style="opacity:1" fill="#fef7a1" d="M 2578.5,2787.5 C 2578.5,2872.17 2578.5,2956.83 2578.5,3041.5C 2535.85,2999.52 2493.52,2957.19 2451.5,2914.5C 2493.52,2871.81 2535.85,2829.48 2578.5,2787.5 Z"/></g>
<g><path style="opacity:0.95" fill="#42375c" d="M 6104.5,2819.5 C 6106.07,2819.94 6107.24,2820.94 6108,2822.5C 6118.17,2840.83 6128.33,2859.17 6138.5,2877.5C 6116.5,2878.83 6094.5,2878.83 6072.5,2877.5C 6083.7,2858.43 6094.37,2839.1 6104.5,2819.5 Z"/></g>
<g><path style="opacity:1" fill="#f7ef92" d="M 3794.5,2883.5 C 3795.49,2892.65 3795.83,2901.99 3795.5,2911.5C 3790.5,2906.83 3785.5,2902.17 3780.5,2897.5C 3784.83,2892.5 3789.5,2887.83 3794.5,2883.5 Z"/></g>
<g><path style="opacity:1" fill="#fef580" d="M 3780.5,2897.5 C 3785.5,2902.17 3790.5,2906.83 3795.5,2911.5C 3795.5,3008.17 3795.5,3104.83 3795.5,3201.5C 3689.17,3201.5 3582.83,3201.5 3476.5,3201.5C 3577.5,3099.83 3678.83,2998.5 3780.5,2897.5 Z"/></g>
<g><path style="opacity:1" fill="#f7a059" d="M 3796.5,2881.5 C 3796.5,2892.17 3796.5,2902.83 3796.5,2913.5C 3796.83,3009.67 3796.5,3105.67 3795.5,3201.5C 3795.5,3104.83 3795.5,3008.17 3795.5,2911.5C 3795.83,2901.99 3795.49,2892.65 3794.5,2883.5C 3794.83,2882.5 3795.5,2881.83 3796.5,2881.5 Z"/></g>
<g><path style="opacity:0.942" fill="#42375c" d="M 6104.5,2979.5 C 6105.5,2979.41 6106.33,2979.75 6107,2980.5C 6117.8,2999.77 6128.3,3019.1 6138.5,3038.5C 6116.49,3038.83 6094.49,3038.5 6072.5,3037.5C 6083.19,3018.11 6093.86,2998.78 6104.5,2979.5 Z"/></g>
<g><path style="opacity:0.972" fill="#42375c" d="M 113.5,3034.5 C 128.761,3048.09 143.428,3062.43 157.5,3077.5C 143.806,3092.03 129.64,3106.03 115,3119.5C 100.208,3105.71 85.7075,3091.54 71.5,3077C 85.7019,3062.97 99.7019,3048.8 113.5,3034.5 Z"/></g>
<g><path style="opacity:0.961" fill="#42375c" d="M 316.5,3034.5 C 317.552,3034.35 318.552,3034.52 319.5,3035C 333.542,3048.71 347.208,3062.71 360.5,3077C 347,3091.83 332.833,3106 318,3119.5C 303.167,3106 289,3091.83 275.5,3077C 288.994,3062.67 302.66,3048.51 316.5,3034.5 Z"/></g>
<g><path style="opacity:0.961" fill="#42375c" d="M 519.5,3034.5 C 520.552,3034.35 521.552,3034.52 522.5,3035C 536.542,3048.71 550.208,3062.71 563.5,3077C 550,3091.83 535.833,3106 521,3119.5C 506.167,3106 492,3091.83 478.5,3077C 491.994,3062.67 505.66,3048.51 519.5,3034.5 Z"/></g>
<g><path style="opacity:0.991" fill="#3fb975" d="M 2578.5,3042.5 C 2631.83,3095.5 2685.17,3148.5 2738.5,3201.5C 2738.5,3201.83 2738.5,3202.17 2738.5,3202.5C 2685.17,3202.5 2631.83,3202.5 2578.5,3202.5C 2434.83,3202.5 2291.17,3202.5 2147.5,3202.5C 2147.5,3202.17 2147.5,3201.83 2147.5,3201.5C 2291.17,3201.5 2434.83,3201.5 2578.5,3201.5C 2578.5,3148.5 2578.5,3095.5 2578.5,3042.5 Z"/></g>
<g><path style="opacity:1" fill="#79c8a0" d="M 1360.5,3201.5 C 1360.83,3201.5 1361.17,3201.5 1361.5,3201.5C 1427.83,3201.5 1494.17,3201.5 1560.5,3201.5C 1560.5,3250.17 1560.5,3298.83 1560.5,3347.5C 1558.51,3361.65 1550.51,3370.15 1536.5,3373C 1477.83,3373.5 1419.17,3373.67 1360.5,3373.5C 1360.5,3316.17 1360.5,3258.83 1360.5,3201.5 Z"/></g>
<g><path style="opacity:1" fill="#fef362" d="M 1750.5,3346.5 C 1752.42,3362.08 1761.08,3371.08 1776.5,3373.5C 1840.66,3374.5 1905,3374.83 1969.5,3374.5C 1969.5,3484.83 1969.5,3595.17 1969.5,3705.5C 1766.5,3705.5 1563.5,3705.5 1360.5,3705.5C 1360.5,3594.83 1360.5,3484.17 1360.5,3373.5C 1419.17,3373.67 1477.83,3373.5 1536.5,3373C 1550.51,3370.15 1558.51,3361.65 1560.5,3347.5C 1561.5,3299 1561.83,3250.34 1561.5,3201.5C 1624.17,3201.5 1686.83,3201.5 1749.5,3201.5C 1749.17,3250 1749.5,3298.34 1750.5,3346.5 Z"/></g>
<g><path style="opacity:0.999" fill="#3eb874" d="M 2147.5,3202.5 C 2291.17,3202.5 2434.83,3202.5 2578.5,3202.5C 2578.5,3370.5 2578.5,3538.5 2578.5,3706.5C 2172.5,3706.5 1766.5,3706.5 1360.5,3706.5C 1360.5,3706.17 1360.5,3705.83 1360.5,3705.5C 1563.5,3705.5 1766.5,3705.5 1969.5,3705.5C 1969.5,3595.17 1969.5,3484.83 1969.5,3374.5C 1905,3374.83 1840.66,3374.5 1776.5,3373.5C 1893.89,3373.99 2011.22,3373.49 2128.5,3372C 2137.92,3367.58 2144.09,3360.42 2147,3350.5C 2147.5,3301.17 2147.67,3251.83 2147.5,3202.5 Z"/></g>
<g><path style="opacity:0.992" fill="#f26f20" d="M 461.5,3461.5 C 504.167,3461.5 546.833,3461.5 589.5,3461.5C 589.5,3506.83 589.5,3552.17 589.5,3597.5C 547.165,3597.67 504.832,3597.5 462.5,3597C 459.438,3595.94 456.938,3594.11 455,3591.5C 453.345,3550.92 453.012,3510.25 454,3469.5C 455.69,3465.98 458.19,3463.31 461.5,3461.5 Z"/></g>
<g><path style="opacity:0.952" fill="#42375c" d="M 2812.5,3509.5 C 2815.97,3508.87 2818.8,3509.87 2821,3512.5C 2821.67,3526.5 2821.67,3540.5 2821,3554.5C 2816.57,3558.55 2812.57,3558.22 2809,3553.5C 2808.33,3539.83 2808.33,3526.17 2809,3512.5C 2810.15,3511.36 2811.31,3510.36 2812.5,3509.5 Z"/></g>
<g><path style="opacity:0.9" fill="#42375c" d="M 2761.5,3560.5 C 2774.17,3560.33 2786.84,3560.5 2799.5,3561C 2804.04,3562.66 2805.54,3565.83 2804,3570.5C 2803.5,3572.33 2802.33,3573.5 2800.5,3574C 2787.17,3574.67 2773.83,3574.67 2760.5,3574C 2755.31,3569.08 2755.64,3564.58 2761.5,3560.5 Z"/></g>
<g><path style="opacity:0.895" fill="#42375c" d="M 2830.5,3560.5 C 2843.17,3560.33 2855.84,3560.5 2868.5,3561C 2872.56,3562.95 2874.06,3566.11 2873,3570.5C 2872.5,3572.33 2871.33,3573.5 2869.5,3574C 2856.17,3574.67 2842.83,3574.67 2829.5,3574C 2823.95,3569.1 2824.29,3564.6 2830.5,3560.5 Z"/></g>
<g><path style="opacity:0.962" fill="#42375c" d="M 2811.5,3578.5 C 2813.86,3578.34 2816.19,3578.5 2818.5,3579C 2819.67,3579.5 2820.5,3580.33 2821,3581.5C 2821.67,3595.17 2821.67,3608.83 2821,3622.5C 2817.05,3626.49 2813.05,3626.49 2809,3622.5C 2808.33,3608.83 2808.33,3595.17 2809,3581.5C 2810.04,3580.63 2810.88,3579.63 2811.5,3578.5 Z"/></g>
<g><path style="opacity:0.914" fill="#42375c" d="M 5488.5,3651.5 C 5495.94,3650.59 5502.61,3652.43 5508.5,3657C 5515.93,3666.52 5523.59,3675.85 5531.5,3685C 5538.04,3688.49 5544.38,3688.16 5550.5,3684C 5556.12,3676.59 5561.62,3669.09 5567,3661.5C 5578.09,3650.44 5590.59,3648.61 5604.5,3656C 5611.81,3662.97 5617.98,3670.81 5623,3679.5C 5632.33,3690.17 5641.67,3690.17 5651,3679.5C 5656.02,3670.81 5662.19,3662.97 5669.5,3656C 5683.12,3648.84 5695.62,3650.34 5707,3660.5C 5712.47,3668.6 5718.3,3676.43 5724.5,3684C 5730.29,3688.14 5736.29,3688.47 5742.5,3685C 5749.93,3675.48 5757.59,3666.15 5765.5,3657C 5780.16,3648.26 5793.32,3650.1 5805,3662.5C 5809.75,3670.81 5815.58,3678.31 5822.5,3685C 5829.31,3688.69 5835.64,3688.02 5841.5,3683C 5846.67,3675.83 5851.83,3668.67 5857,3661.5C 5868.42,3650.41 5881.26,3648.57 5895.5,3656C 5903.88,3665.38 5911.88,3675.04 5919.5,3685C 5925.71,3688.47 5931.71,3688.14 5937.5,3684C 5943.79,3675.92 5949.95,3667.76 5956,3659.5C 5969.03,3649.04 5982.2,3648.87 5995.5,3659C 6001.83,3667.33 6008.17,3675.67 6014.5,3684C 6018.78,3686.66 6023.45,3688.33 6028.5,3689C 6031.81,3694.54 6030.31,3698.04 6024,3699.5C 6014.42,3698.59 6006.75,3694.26 6001,3686.5C 5996.44,3679.22 5991.27,3672.38 5985.5,3666C 5975.79,3660.34 5967.62,3662.17 5961,3671.5C 5955.69,3680.95 5948.86,3689.12 5940.5,3696C 5928.18,3701.25 5917.01,3699.42 5907,3690.5C 5900.95,3682.24 5894.79,3674.08 5888.5,3666C 5881.4,3661.06 5874.73,3661.56 5868.5,3667.5C 5862.41,3676.43 5855.74,3684.93 5848.5,3693C 5836.52,3701.66 5824.52,3701.66 5812.5,3693C 5805.73,3685.28 5799.56,3677.11 5794,3668.5C 5786.91,3661.28 5779.41,3660.78 5771.5,3667C 5765.17,3675.33 5758.83,3683.67 5752.5,3692C 5741.24,3700.74 5729.57,3701.41 5717.5,3694C 5709.5,3684.33 5701.5,3674.67 5693.5,3665C 5684.29,3660.84 5676.79,3663.01 5671,3671.5C 5665.7,3681.95 5658.2,3690.45 5648.5,3697C 5633.57,3702.02 5621.41,3698.19 5612,3685.5C 5608.02,3678.38 5603.19,3671.88 5597.5,3666C 5592.08,3661.82 5586.41,3661.49 5580.5,3665C 5572.5,3674.67 5564.5,3684.33 5556.5,3694C 5544.98,3701.5 5533.65,3701.17 5522.5,3693C 5515.59,3684.51 5508.92,3675.85 5502.5,3667C 5498.35,3663.95 5493.69,3662.28 5488.5,3662C 5484.61,3658.51 5484.61,3655.01 5488.5,3651.5 Z"/></g>
<g><path style="opacity:0.915" fill="#42375c" d="M 5395.5,3712.5 C 5405.96,3711.65 5414.46,3715.32 5421,3723.5C 5426.08,3732.24 5432.25,3740.08 5439.5,3747C 5445.02,3749.24 5450.35,3748.9 5455.5,3746C 5462.42,3739.31 5468.25,3731.81 5473,3723.5C 5484.71,3711.11 5497.87,3709.28 5512.5,3718C 5520.41,3727.15 5528.07,3736.48 5535.5,3746C 5541.71,3749.47 5547.71,3749.14 5553.5,3745C 5559.7,3737.43 5565.53,3729.6 5571,3721.5C 5582.38,3711.34 5594.88,3709.84 5608.5,3717C 5615.81,3723.97 5621.98,3731.81 5627,3740.5C 5636.33,3751.17 5645.67,3751.17 5655,3740.5C 5660.02,3731.81 5666.19,3723.97 5673.5,3717C 5687.44,3709.59 5699.94,3711.42 5711,3722.5C 5716.38,3730.09 5721.88,3737.59 5727.5,3745C 5737.28,3750.92 5745.45,3749.08 5752,3739.5C 5757.05,3730.45 5763.55,3722.62 5771.5,3716C 5785.88,3709.41 5798.38,3711.91 5809,3723.5C 5813.75,3731.81 5819.58,3739.31 5826.5,3746C 5832.71,3749.47 5838.71,3749.14 5844.5,3745C 5850.12,3737.59 5855.62,3730.09 5861,3722.5C 5872.08,3711.44 5884.58,3709.61 5898.5,3717C 5905.81,3723.97 5911.98,3731.81 5917,3740.5C 5921.74,3746.45 5927.91,3749.62 5935.5,3750C 5937.86,3755.3 5936.36,3758.8 5931,3760.5C 5923.2,3759.93 5916.53,3756.93 5911,3751.5C 5905.44,3742.89 5899.27,3734.72 5892.5,3727C 5886.71,3722.79 5880.71,3722.46 5874.5,3726C 5867.58,3732.69 5861.75,3740.19 5857,3748.5C 5842.27,3763.87 5827.27,3764.2 5812,3749.5C 5807.2,3742.07 5802.03,3734.9 5796.5,3728C 5789.5,3722 5782.5,3722 5775.5,3728C 5769.08,3736.85 5762.41,3745.51 5755.5,3754C 5744.04,3762.03 5732.37,3762.36 5720.5,3755C 5712.5,3745.33 5704.5,3735.67 5696.5,3726C 5690.62,3722.48 5684.96,3722.81 5679.5,3727C 5673.81,3732.88 5668.98,3739.38 5665,3746.5C 5648.67,3765.17 5632.33,3765.17 5616,3746.5C 5612.02,3739.38 5607.19,3732.88 5601.5,3727C 5596.08,3722.82 5590.41,3722.49 5584.5,3726C 5576.5,3735.67 5568.5,3745.33 5560.5,3755C 5548.08,3762.52 5536.08,3761.85 5524.5,3753C 5517.83,3744.33 5511.17,3735.67 5504.5,3727C 5497.4,3722.06 5490.73,3722.56 5484.5,3728.5C 5478.41,3737.43 5471.74,3745.93 5464.5,3754C 5453.39,3762.16 5442.06,3762.49 5430.5,3755C 5422.5,3745.33 5414.5,3735.67 5406.5,3726C 5403.04,3724.26 5399.38,3723.26 5395.5,3723C 5391.57,3719.5 5391.57,3716 5395.5,3712.5 Z"/></g>
<g><path style="opacity:0.99" fill="#f26f20" d="M 4095.5,3780.5 C 4143.13,3778.8 4176.46,3799.63 4195.5,3843C 4209.38,3891.05 4196.04,3929.38 4155.5,3958C 4116.77,3978.26 4079.77,3975.59 4044.5,3950C 4014.17,3922.33 4004,3888.5 4014,3848.5C 4027.45,3809.22 4054.62,3786.55 4095.5,3780.5 Z"/></g>
<g><path style="opacity:0.997" fill="#14b5e7" d="M 2672.5,3785.5 C 2720.17,3785.5 2767.83,3785.5 2815.5,3785.5C 2815.5,3877.5 2815.5,3969.5 2815.5,4061.5C 2767.83,4061.5 2720.17,4061.5 2672.5,4061.5C 2672.5,3969.5 2672.5,3877.5 2672.5,3785.5 Z"/></g>
<g><path style="opacity:0.997" fill="#46ba78" d="M 5274.5,3917.5 C 5401.5,3917.5 5528.5,3917.5 5655.5,3917.5C 5655.5,3965.5 5655.5,4013.5 5655.5,4061.5C 5528.5,4061.5 5401.5,4061.5 5274.5,4061.5C 5274.5,4013.5 5274.5,3965.5 5274.5,3917.5 Z"/></g>
<g><path style="opacity:0.978" fill="#000000" d="M 346.5,4330.5 C 2182.5,4330.5 4018.5,4330.5 5854.5,4330.5C 5854.5,4341.83 5854.5,4353.17 5854.5,4364.5C 4018.5,4364.5 2182.5,4364.5 346.5,4364.5C 346.5,4353.17 346.5,4341.83 346.5,4330.5 Z"/></g>
<g><path style="opacity:0.981" fill="#000000" d="M 3306.5,4756.5 C 3322.3,4755.82 3337.97,4756.82 3353.5,4759.5C 3352.47,4767.8 3351.81,4776.13 3351.5,4784.5C 3338.56,4782.63 3325.56,4782.13 3312.5,4783C 3291.13,4787.7 3278.63,4800.87 3275,4822.5C 3273.59,4839.12 3273.09,4855.79 3273.5,4872.5C 3294.5,4872.5 3315.5,4872.5 3336.5,4872.5C 3336.5,4880.5 3336.5,4888.5 3336.5,4896.5C 3315.5,4896.5 3294.5,4896.5 3273.5,4896.5C 3273.5,4976.5 3273.5,5056.5 3273.5,5136.5C 3263.5,5136.5 3253.5,5136.5 3243.5,5136.5C 3243.5,5056.5 3243.5,4976.5 3243.5,4896.5C 3228.83,4896.5 3214.17,4896.5 3199.5,4896.5C 3199.5,4888.5 3199.5,4880.5 3199.5,4872.5C 3214.17,4872.5 3228.83,4872.5 3243.5,4872.5C 3243.33,4856.16 3243.5,4839.83 3244,4823.5C 3248.57,4785.77 3269.41,4763.43 3306.5,4756.5 Z"/></g>
<g><path style="opacity:0.961" fill="#000000" d="M 1865.5,4776.5 C 1889.76,4774.92 1897.93,4785.59 1890,4808.5C 1883.19,4815.18 1875.03,4817.35 1865.5,4815C 1856.72,4811.79 1852.39,4805.46 1852.5,4796C 1852.51,4786.46 1856.84,4779.96 1865.5,4776.5 Z"/></g>
<g><path style="opacity:0.961" fill="#000000" d="M 3801.5,4776.5 C 3825.76,4774.92 3833.93,4785.59 3826,4808.5C 3819.19,4815.18 3811.03,4817.35 3801.5,4815C 3792.72,4811.79 3788.39,4805.46 3788.5,4796C 3788.51,4786.46 3792.84,4779.96 3801.5,4776.5 Z"/></g>
<g><path style="opacity:0.976" fill="#000000" d="M 1045.5,4781.5 C 1055.83,4781.5 1066.17,4781.5 1076.5,4781.5C 1076.5,4899.83 1076.5,5018.17 1076.5,5136.5C 1066.17,5136.5 1055.83,5136.5 1045.5,5136.5C 1045.5,5018.17 1045.5,4899.83 1045.5,4781.5 Z"/></g>
<g><path style="opacity:0.985" fill="#000000" d="M 3515.5,4781.5 C 3589.5,4781.5 3663.5,4781.5 3737.5,4781.5C 3737.5,4789.83 3737.5,4798.17 3737.5,4806.5C 3673.83,4806.5 3610.17,4806.5 3546.5,4806.5C 3546.5,4852.5 3546.5,4898.5 3546.5,4944.5C 3601.83,4944.5 3657.17,4944.5 3712.5,4944.5C 3712.5,4952.83 3712.5,4961.17 3712.5,4969.5C 3657.17,4969.5 3601.83,4969.5 3546.5,4969.5C 3546.5,5025.17 3546.5,5080.83 3546.5,5136.5C 3536.17,5136.5 3525.83,5136.5 3515.5,5136.5C 3515.5,5018.17 3515.5,4899.83 3515.5,4781.5 Z"/></g>
<g><path style="opacity:0.974" fill="#000000" d="M 4660.5,4781.5 C 4670.75,4781.18 4680.92,4781.51 4691,4782.5C 4735.81,4900.42 4780.31,5018.42 4824.5,5136.5C 4813.59,5136.82 4802.75,5136.49 4792,5135.5C 4780.03,5102.57 4767.86,5069.74 4755.5,5037C 4702.16,5036.17 4648.83,5036.33 4595.5,5037.5C 4583.1,5070.38 4571.1,5103.38 4559.5,5136.5C 4548.48,5136.83 4537.48,5136.5 4526.5,5135.5C 4571.37,5017.55 4616.04,4899.55 4660.5,4781.5 Z M 4674.5,4821.5 C 4675.5,4821.47 4676.16,4821.97 4676.5,4823C 4699.94,4885.7 4722.94,4948.54 4745.5,5011.5C 4698.83,5011.5 4652.17,5011.5 4605.5,5011.5C 4628.5,4948.17 4651.5,4884.83 4674.5,4821.5 Z"/></g>
<g><path style="opacity:0.982" fill="#000000" d="M 1709.5,4804.5 C 1719.5,4804.5 1729.5,4804.5 1739.5,4804.5C 1739.5,4827.17 1739.5,4849.83 1739.5,4872.5C 1757.83,4872.5 1776.17,4872.5 1794.5,4872.5C 1794.5,4880.5 1794.5,4888.5 1794.5,4896.5C 1776.17,4896.5 1757.83,4896.5 1739.5,4896.5C 1739.33,4958.5 1739.5,5020.5 1740,5082.5C 1740.63,5091.74 1743.63,5100.07 1749,5107.5C 1756.42,5114.02 1765.09,5116.69 1775,5115.5C 1782.57,5115.51 1790.07,5114.85 1797.5,5113.5C 1798.19,5121.82 1798.52,5130.15 1798.5,5138.5C 1783.65,5141.39 1768.65,5142.23 1753.5,5141C 1734.73,5138.21 1721.89,5128.05 1715,5110.5C 1712.44,5103.37 1710.77,5096.04 1710,5088.5C 1709.5,5024.5 1709.33,4960.5 1709.5,4896.5C 1693.17,4896.5 1676.83,4896.5 1660.5,4896.5C 1660.5,4888.5 1660.5,4880.5 1660.5,4872.5C 1676.83,4872.5 1693.17,4872.5 1709.5,4872.5C 1709.5,4849.83 1709.5,4827.17 1709.5,4804.5 Z"/></g>
<g><path style="opacity:0.982" fill="#000000" d="M 1982.5,4804.5 C 1992.5,4804.5 2002.5,4804.5 2012.5,4804.5C 2012.5,4827.17 2012.5,4849.83 2012.5,4872.5C 2030.83,4872.5 2049.17,4872.5 2067.5,4872.5C 2067.5,4880.5 2067.5,4888.5 2067.5,4896.5C 2049.17,4896.5 2030.83,4896.5 2012.5,4896.5C 2012.33,4958.5 2012.5,5020.5 2013,5082.5C 2013.63,5091.74 2016.63,5100.07 2022,5107.5C 2029.42,5114.02 2038.09,5116.69 2048,5115.5C 2055.57,5115.51 2063.07,5114.85 2070.5,5113.5C 2071.19,5121.82 2071.52,5130.15 2071.5,5138.5C 2056.65,5141.39 2041.65,5142.23 2026.5,5141C 2007.73,5138.21 1994.89,5128.05 1988,5110.5C 1985.44,5103.37 1983.77,5096.04 1983,5088.5C 1982.5,5024.5 1982.33,4960.5 1982.5,4896.5C 1966.17,4896.5 1949.83,4896.5 1933.5,4896.5C 1933.5,4888.5 1933.5,4880.5 1933.5,4872.5C 1949.83,4872.5 1966.17,4872.5 1982.5,4872.5C 1982.5,4849.83 1982.5,4827.17 1982.5,4804.5 Z"/></g>
<g><path style="opacity:0.982" fill="#000000" d="M 2417.5,4804.5 C 2427.5,4804.5 2437.5,4804.5 2447.5,4804.5C 2447.5,4827.17 2447.5,4849.83 2447.5,4872.5C 2465.83,4872.5 2484.17,4872.5 2502.5,4872.5C 2502.5,4880.5 2502.5,4888.5 2502.5,4896.5C 2484.17,4896.5 2465.83,4896.5 2447.5,4896.5C 2447.33,4958.5 2447.5,5020.5 2448,5082.5C 2448.63,5091.74 2451.63,5100.07 2457,5107.5C 2464.42,5114.02 2473.09,5116.69 2483,5115.5C 2490.57,5115.51 2498.07,5114.85 2505.5,5113.5C 2506.19,5121.82 2506.52,5130.15 2506.5,5138.5C 2491.65,5141.39 2476.65,5142.23 2461.5,5141C 2442.73,5138.21 2429.89,5128.05 2423,5110.5C 2420.44,5103.37 2418.77,5096.04 2418,5088.5C 2417.5,5024.5 2417.33,4960.5 2417.5,4896.5C 2401.17,4896.5 2384.83,4896.5 2368.5,4896.5C 2368.5,4888.5 2368.5,4880.5 2368.5,4872.5C 2384.83,4872.5 2401.17,4872.5 2417.5,4872.5C 2417.5,4849.83 2417.5,4827.17 2417.5,4804.5 Z"/></g>
<g><path style="opacity:0.982" fill="#000000" d="M 5065.5,4804.5 C 5075.5,4804.5 5085.5,4804.5 5095.5,4804.5C 5095.5,4827.17 5095.5,4849.83 5095.5,4872.5C 5113.83,4872.5 5132.17,4872.5 5150.5,4872.5C 5150.5,4880.5 5150.5,4888.5 5150.5,4896.5C 5132.17,4896.5 5113.83,4896.5 5095.5,4896.5C 5095.33,4958.5 5095.5,5020.5 5096,5082.5C 5096.63,5091.74 5099.63,5100.07 5105,5107.5C 5112.42,5114.02 5121.09,5116.69 5131,5115.5C 5138.57,5115.51 5146.07,5114.85 5153.5,5113.5C 5154.19,5121.82 5154.52,5130.15 5154.5,5138.5C 5139.65,5141.39 5124.65,5142.23 5109.5,5141C 5090.73,5138.21 5077.89,5128.05 5071,5110.5C 5068.44,5103.37 5066.77,5096.04 5066,5088.5C 5065.5,5024.5 5065.33,4960.5 5065.5,4896.5C 5049.17,4896.5 5032.83,4896.5 5016.5,4896.5C 5016.5,4888.5 5016.5,4880.5 5016.5,4872.5C 5032.83,4872.5 5049.17,4872.5 5065.5,4872.5C 5065.5,4849.83 5065.5,4827.17 5065.5,4804.5 Z"/></g>
<g><path style="opacity:0.974" fill="#000000" d="M 1265.5,4867.5 C 1328.38,4861.22 1361.54,4889.55 1365,4952.5C 1365.5,5013.83 1365.67,5075.17 1365.5,5136.5C 1355.5,5136.5 1345.5,5136.5 1335.5,5136.5C 1335.67,5076.17 1335.5,5015.83 1335,4955.5C 1334.72,4940.39 1330.72,4926.39 1323,4913.5C 1310.35,4898.77 1294.19,4892.11 1274.5,4893.5C 1257.98,4893.06 1242.98,4897.56 1229.5,4907C 1213.8,4919.23 1202.64,4934.73 1196,4953.5C 1195.5,5014.5 1195.33,5075.5 1195.5,5136.5C 1185.5,5136.5 1175.5,5136.5 1165.5,5136.5C 1165.5,5048.5 1165.5,4960.5 1165.5,4872.5C 1174.83,4872.5 1184.17,4872.5 1193.5,4872.5C 1194.28,4886.8 1194.78,4901.13 1195,4915.5C 1211.37,4888.95 1234.87,4872.95 1265.5,4867.5 Z"/></g>
<g><path style="opacity:0.967" fill="#000000" d="M 1511.5,4867.5 C 1535.66,4864.98 1558.99,4868.15 1581.5,4877C 1610.94,4890.7 1626.28,4913.86 1627.5,4946.5C 1617.17,4946.5 1606.83,4946.5 1596.5,4946.5C 1596.55,4931.09 1590.55,4918.59 1578.5,4909C 1557.32,4894.24 1533.99,4889.58 1508.5,4895C 1492.83,4897.91 1480.33,4905.74 1471,4918.5C 1461.47,4938.5 1464.97,4955.66 1481.5,4970C 1488.11,4974.14 1495.11,4977.47 1502.5,4980C 1521.69,4985.84 1541.02,4991.17 1560.5,4996C 1575.49,5000.22 1589.49,5006.55 1602.5,5015C 1624.93,5032.94 1633.09,5056.11 1627,5084.5C 1619.88,5107.63 1605.04,5123.79 1582.5,5133C 1559.49,5141.07 1535.82,5143.74 1511.5,5141C 1482.45,5138.68 1458.62,5126.51 1440,5104.5C 1430.88,5092.03 1426.38,5078.03 1426.5,5062.5C 1436.83,5062.5 1447.17,5062.5 1457.5,5062.5C 1459.36,5084.87 1470.69,5100.37 1491.5,5109C 1508.98,5115.16 1526.98,5117.16 1545.5,5115C 1562.54,5113.4 1577.04,5106.56 1589,5094.5C 1601.3,5077.78 1601.63,5060.78 1590,5043.5C 1581.09,5034.29 1570.59,5027.46 1558.5,5023C 1538.67,5017.04 1518.67,5011.71 1498.5,5007C 1479.66,5001.83 1463.16,4992.67 1449,4979.5C 1434.57,4959.54 1431.57,4937.87 1440,4914.5C 1450.99,4892.91 1468.16,4878.74 1491.5,4872C 1498.26,4870.28 1504.93,4868.78 1511.5,4867.5 Z"/></g>
<g><path style="opacity:0.974" fill="#000000" d="M 2644.5,4867.5 C 2704.81,4862.89 2743.31,4889.56 2760,4947.5C 2763.93,4966.97 2765.43,4986.64 2764.5,5006.5C 2701.83,5006.5 2639.17,5006.5 2576.5,5006.5C 2574.27,5043.01 2586.61,5073.51 2613.5,5098C 2638.39,5116.03 2665.73,5120.69 2695.5,5112C 2713.39,5105.61 2728.39,5095.11 2740.5,5080.5C 2746.17,5084.67 2751.83,5088.83 2757.5,5093C 2758.52,5094.05 2758.68,5095.22 2758,5096.5C 2739.51,5122.5 2714.35,5137.33 2682.5,5141C 2623.94,5146.69 2582.11,5123.19 2557,5070.5C 2541.74,5027.2 2541.74,4983.87 2557,4940.5C 2573.4,4900.58 2602.57,4876.25 2644.5,4867.5 Z M 2647.5,4893.5 C 2685.48,4890.07 2711.98,4905.73 2727,4940.5C 2732.01,4953.71 2734.51,4967.37 2734.5,4981.5C 2682.17,4981.5 2629.83,4981.5 2577.5,4981.5C 2579.88,4948.21 2594.55,4922.05 2621.5,4903C 2629.76,4898.35 2638.43,4895.19 2647.5,4893.5 Z"/></g>
<g><path style="opacity:0.968" fill="#000000" d="M 3027.5,4867.5 C 3080,4861.83 3119.5,4881.5 3146,4926.5C 3158.15,4951.24 3163.65,4977.41 3162.5,5005C 3164.13,5041.1 3154.3,5073.6 3133,5102.5C 3099.65,5137.94 3059.15,5149.77 3011.5,5138C 2968.84,5124.01 2942.01,5095.17 2931,5051.5C 2922.45,5013.57 2924.45,4976.24 2937,4939.5C 2954.06,4898.93 2984.23,4874.93 3027.5,4867.5 Z M 3030.5,4893.5 C 3075.9,4890.09 3107.07,4909.43 3124,4951.5C 3132.52,4977.24 3134.85,5003.57 3131,5030.5C 3127.66,5059.35 3114.83,5082.85 3092.5,5101C 3070.73,5115.68 3047.06,5119.68 3021.5,5113C 2998.96,5106.13 2982.13,5092.29 2971,5071.5C 2960.36,5050.8 2955.53,5028.8 2956.5,5005.5C 2954.97,4973.27 2964.13,4944.6 2984,4919.5C 2996.71,4905.73 3012.21,4897.07 3030.5,4893.5 Z"/></g>
<g><path style="opacity:0.974" fill="#000000" d="M 4002.5,4867.5 C 4065.38,4861.22 4098.54,4889.55 4102,4952.5C 4102.5,5013.83 4102.67,5075.17 4102.5,5136.5C 4092.5,5136.5 4082.5,5136.5 4072.5,5136.5C 4072.67,5076.17 4072.5,5015.83 4072,4955.5C 4071.72,4940.39 4067.72,4926.39 4060,4913.5C 4047.35,4898.77 4031.19,4892.11 4011.5,4893.5C 3994.98,4893.06 3979.98,4897.56 3966.5,4907C 3950.8,4919.23 3939.64,4934.73 3933,4953.5C 3932.5,5014.5 3932.33,5075.5 3932.5,5136.5C 3922.5,5136.5 3912.5,5136.5 3902.5,5136.5C 3902.5,5048.5 3902.5,4960.5 3902.5,4872.5C 3911.83,4872.5 3921.17,4872.5 3930.5,4872.5C 3931.28,4886.8 3931.78,4901.13 3932,4915.5C 3948.37,4888.95 3971.87,4872.95 4002.5,4867.5 Z"/></g>
<g><path style="opacity:0.974" fill="#000000" d="M 4259.5,4867.5 C 4319.81,4862.89 4358.31,4889.56 4375,4947.5C 4378.93,4966.97 4380.43,4986.64 4379.5,5006.5C 4316.83,5006.5 4254.17,5006.5 4191.5,5006.5C 4189.27,5043.01 4201.61,5073.51 4228.5,5098C 4253.39,5116.03 4280.73,5120.69 4310.5,5112C 4328.39,5105.61 4343.39,5095.11 4355.5,5080.5C 4361.17,5084.67 4366.83,5088.83 4372.5,5093C 4373.52,5094.05 4373.68,5095.22 4373,5096.5C 4354.51,5122.5 4329.35,5137.33 4297.5,5141C 4238.94,5146.69 4197.11,5123.19 4172,5070.5C 4156.74,5027.2 4156.74,4983.87 4172,4940.5C 4188.4,4900.58 4217.57,4876.25 4259.5,4867.5 Z M 4262.5,4893.5 C 4300.48,4890.07 4326.98,4905.73 4342,4940.5C 4347.01,4953.71 4349.51,4967.37 4349.5,4981.5C 4297.17,4981.5 4244.83,4981.5 4192.5,4981.5C 4194.88,4948.21 4209.55,4922.05 4236.5,4903C 4244.76,4898.35 4253.43,4895.19 4262.5,4893.5 Z"/></g>
<g><path style="opacity:0.976" fill="#000000" d="M 4958.5,4867.5 C 4969.94,4867.01 4981.27,4867.68 4992.5,4869.5C 4992.5,4878.83 4992.5,4888.17 4992.5,4897.5C 4945.88,4889.87 4915.05,4908.21 4900,4952.5C 4899.5,5013.83 4899.33,5075.17 4899.5,5136.5C 4889.5,5136.5 4879.5,5136.5 4869.5,5136.5C 4869.5,5048.5 4869.5,4960.5 4869.5,4872.5C 4879.17,4872.5 4888.83,4872.5 4898.5,4872.5C 4898.21,4885.2 4898.71,4897.87 4900,4910.5C 4912.32,4886.34 4931.82,4872 4958.5,4867.5 Z"/></g>
<g><path style="opacity:0.983" fill="#000000" d="M 1857.5,4872.5 C 1867.5,4872.5 1877.5,4872.5 1887.5,4872.5C 1887.5,4960.5 1887.5,5048.5 1887.5,5136.5C 1877.5,5136.5 1867.5,5136.5 1857.5,5136.5C 1857.5,5048.5 1857.5,4960.5 1857.5,4872.5 Z"/></g>
<g><path style="opacity:0.977" fill="#000000" d="M 2125.5,4872.5 C 2135.5,4872.5 2145.5,4872.5 2155.5,4872.5C 2155.33,4934.17 2155.5,4995.83 2156,5057.5C 2157.34,5077.02 2165.18,5093.18 2179.5,5106C 2190.88,5113.46 2203.38,5116.62 2217,5115.5C 2255.03,5117.17 2281.03,5100.51 2295,5065.5C 2295.5,5001.17 2295.67,4936.83 2295.5,4872.5C 2305.5,4872.5 2315.5,4872.5 2325.5,4872.5C 2325.5,4960.5 2325.5,5048.5 2325.5,5136.5C 2315.83,5136.5 2306.17,5136.5 2296.5,5136.5C 2296.67,5126.16 2296.5,5115.83 2296,5105.5C 2274.66,5131.63 2246.99,5143.63 2213,5141.5C 2159.76,5141.36 2130.76,5114.69 2126,5061.5C 2125.5,4998.5 2125.33,4935.5 2125.5,4872.5 Z"/></g>
<g><path style="opacity:0.983" fill="#000000" d="M 3793.5,4872.5 C 3803.5,4872.5 3813.5,4872.5 3823.5,4872.5C 3823.5,4960.5 3823.5,5048.5 3823.5,5136.5C 3813.5,5136.5 3803.5,5136.5 3793.5,5136.5C 3793.5,5048.5 3793.5,4960.5 3793.5,4872.5 Z"/></g>
</svg>
